<svg width="65" height="64" viewBox="0 0 65 64" fill="none" xmlns="http://www.w3.org/2000/svg">
<path opacity="0.5" d="M32.4997 58.6666C47.2271 58.6666 59.1663 46.7274 59.1663 31.9999C59.1663 17.2723 47.2271 5.33325 32.4997 5.33325C17.7721 5.33325 5.83301 17.2723 5.83301 31.9999C5.83301 46.7274 17.7721 58.6666 32.4997 58.6666Z" fill="white"/>
<path d="M22.8934 41.4757C23.5511 40.5882 24.8037 40.4021 25.6911 41.06C27.6335 42.4995 29.9777 43.3333 32.5001 43.3333C35.0225 43.3333 37.3668 42.4995 39.3092 41.06C40.1967 40.4021 41.4492 40.5882 42.1068 41.4757C42.7647 42.3632 42.5785 43.6157 41.6911 44.2733C39.098 46.1955 35.9268 47.3333 32.5001 47.3333C29.0735 47.3333 25.9023 46.1955 23.3092 44.2733C22.4218 43.6157 22.2356 42.3632 22.8934 41.4757Z" fill="white"/>
<path d="M40.4997 32C41.9725 32 43.1663 30.2091 43.1663 28C43.1663 25.7909 41.9725 24 40.4997 24C39.0269 24 37.833 25.7909 37.833 28C37.833 30.2091 39.0269 32 40.4997 32Z" fill="white"/>
<path d="M24.4997 32C25.9724 32 27.1663 30.2091 27.1663 28C27.1663 25.7909 25.9724 24 24.4997 24C23.0269 24 21.833 25.7909 21.833 28C21.833 30.2091 23.0269 32 24.4997 32Z" fill="white"/>
</svg>
