<svg width="56" height="57" viewBox="0 0 56 57" fill="none" xmlns="http://www.w3.org/2000/svg">
<rect y="0.5" width="56" height="56" rx="28" fill="#FF4747" fill-opacity="0.8"/>
<rect x="0.5" y="1" width="55" height="55" rx="27.5" stroke="white" stroke-opacity="0.05"/>
<g clip-path="url(#clip0_333_1901)">
<path d="M30.1209 28.5L39.5605 19.0614C40.1465 18.4754 40.1465 17.5254 39.5605 16.9395C38.9745 16.3535 38.0245 16.3535 37.4386 16.9395L28 26.3791L18.5614 16.9395C17.9754 16.3535 17.0254 16.3535 16.4395 16.9395C15.8536 17.5254 15.8535 18.4755 16.4395 19.0614L25.8791 28.5L16.4395 37.9386C15.8535 38.5246 15.8535 39.4746 16.4395 40.0605C17.0254 40.6464 17.9755 40.6465 18.5614 40.0605L28 30.6209L37.4386 40.0605C38.0245 40.6465 38.9745 40.6465 39.5605 40.0605C40.1464 39.4745 40.1464 38.5245 39.5605 37.9386L30.1209 28.5Z" fill="white"/>
</g>
<defs>
<clipPath id="clip0_333_1901">
<rect width="24" height="24" fill="white" transform="translate(16 16.5)"/>
</clipPath>
</defs>
</svg>
