<svg width="21" height="21" viewBox="0 0 21 21" fill="none" xmlns="http://www.w3.org/2000/svg">
<path d="M2.16699 5.11426L7.92784 8.3784C10.0517 9.58176 10.949 9.58176 13.0728 8.3784L18.8337 5.11426" stroke="white" stroke-width="1.5" stroke-linejoin="round"/>
<path d="M2.18013 11.3438C2.23461 13.8984 2.26185 15.1757 3.20446 16.1219C4.14706 17.0681 5.45893 17.101 8.08268 17.1669C9.69974 17.2076 11.3009 17.2076 12.918 17.1669C15.5417 17.101 16.8536 17.0681 17.7962 16.1219C18.7388 15.1757 18.7661 13.8984 18.8205 11.3438C18.8381 10.5223 18.8381 9.70585 18.8205 8.88443C18.7661 6.32981 18.7388 5.0525 17.7962 4.10631C16.8536 3.16012 15.5417 3.12716 12.918 3.06124C11.3009 3.0206 9.69974 3.0206 8.08268 3.06123C5.45893 3.12715 4.14706 3.1601 3.20445 4.1063C2.26184 5.0525 2.23461 6.3298 2.18013 8.88443C2.16261 9.70585 2.16262 10.5223 2.18013 11.3438Z" stroke="white" stroke-width="1.5" stroke-linejoin="round"/>
</svg>
