<svg width="64" height="64" viewBox="0 0 64 64" fill="none" xmlns="http://www.w3.org/2000/svg">
<path d="M18.5071 5.33325C19.616 5.33325 20.515 6.19781 20.515 7.26429V11.1596C22.2961 11.1263 24.2926 11.1263 26.5388 11.1263H37.2479C39.4941 11.1263 41.4906 11.1263 43.2717 11.1596V7.26429C43.2717 6.19781 44.1706 5.33325 45.2797 5.33325C46.3885 5.33325 47.2877 6.19781 47.2877 7.26429V11.3304C51.141 11.6272 53.6709 12.3555 55.5293 14.1428C57.3879 15.9302 58.1453 18.363 58.4538 22.0689L58.6663 23.9999H7.7985H5.33301V22.0689C5.64157 18.363 6.39887 15.9302 8.25741 14.1428C10.116 12.3555 12.6457 11.6272 16.4991 11.3304V7.26429C16.4991 6.19781 17.3981 5.33325 18.5071 5.33325Z" fill="white"/>
<path opacity="0.5" d="M58.6653 37.3336V32.0003C58.6653 29.7627 58.6568 25.7741 58.6224 24H5.35775C5.32332 25.7741 5.33204 29.7627 5.33204 32.0003V37.3336C5.33204 47.3901 5.33204 52.4184 8.45623 55.5427C11.5804 58.6669 16.6087 58.6669 26.6654 58.6669H37.332C47.3888 58.6669 52.417 58.6669 55.5413 55.5427C58.6653 52.4184 58.6653 47.3901 58.6653 37.3336Z" fill="white"/>
</svg>
