<svg width="32" height="33" viewBox="0 0 32 33" fill="none" xmlns="http://www.w3.org/2000/svg">
<g clip-path="url(#clip0_1_2399)">
<path fill-rule="evenodd" clip-rule="evenodd" d="M5.33464 16.4998C5.33483 14.4471 5.92732 12.438 7.04102 10.7137C8.15472 8.98933 9.74232 7.62296 11.6133 6.77852C13.4843 5.93408 15.5592 5.64744 17.5891 5.953C19.6189 6.25856 21.5175 7.14333 23.057 8.50116C24.5965 9.85899 25.7115 11.6322 26.2682 13.608C26.8249 15.5838 26.7997 17.6782 26.1956 19.6401C25.5914 21.6019 24.4341 23.3477 22.8623 24.6681C21.2906 25.9884 19.3713 26.8272 17.3346 27.0838V19.1665H20.0013C20.3549 19.1665 20.6941 19.026 20.9441 18.776C21.1942 18.5259 21.3346 18.1868 21.3346 17.8332C21.3346 17.4795 21.1942 17.1404 20.9441 16.8904C20.6941 16.6403 20.3549 16.4998 20.0013 16.4998H17.3346V13.8332C17.3346 13.4795 17.4751 13.1404 17.7252 12.8904C17.9752 12.6403 18.3143 12.4998 18.668 12.4998H19.3346C19.6883 12.4998 20.0274 12.3594 20.2774 12.1093C20.5275 11.8593 20.668 11.5201 20.668 11.1665C20.668 10.8129 20.5275 10.4737 20.2774 10.2237C20.0274 9.97365 19.6883 9.83317 19.3346 9.83317H18.668C17.6071 9.83317 16.5897 10.2546 15.8395 11.0047C15.0894 11.7549 14.668 12.7723 14.668 13.8332V16.4998H12.0013C11.6477 16.4998 11.3085 16.6403 11.0585 16.8904C10.8084 17.1404 10.668 17.4795 10.668 17.8332C10.668 18.1868 10.8084 18.5259 11.0585 18.776C11.3085 19.026 11.6477 19.1665 12.0013 19.1665H14.668V27.0838C12.0902 26.7588 9.71973 25.5042 8.00131 23.5555C6.28288 21.6068 5.33468 19.098 5.33464 16.4998ZM16.0013 29.8332C23.3653 29.8332 29.3346 23.8638 29.3346 16.4998C29.3346 9.13584 23.3653 3.1665 16.0013 3.1665C8.6373 3.1665 2.66797 9.13584 2.66797 16.4998C2.66797 23.8638 8.6373 29.8332 16.0013 29.8332Z" fill="url(#paint0_linear_1_2399)"/>
</g>
<defs>
<linearGradient id="paint0_linear_1_2399" x1="16.0013" y1="3.1665" x2="16.0013" y2="29.8332" gradientUnits="userSpaceOnUse">
<stop stop-color="#FF6467"/>
<stop offset="1" stop-color="#FB2C36"/>
</linearGradient>
<clipPath id="clip0_1_2399">
<rect width="32" height="32" fill="white" transform="translate(0 0.5)"/>
</clipPath>
</defs>
</svg>
