<svg width="65" height="64" viewBox="0 0 65 64" fill="none" xmlns="http://www.w3.org/2000/svg">
<path opacity="0.5" d="M32.4997 58.6666C47.2273 58.6666 59.1663 46.7275 59.1663 31.9999C59.1663 17.2723 47.2273 5.33325 32.4997 5.33325C17.7721 5.33325 5.83301 17.2723 5.83301 31.9999C5.83301 46.7275 17.7721 58.6666 32.4997 58.6666Z" fill="white"/>
<path d="M23.3671 25.1929C22.8677 19.635 18.5816 14.4561 16.5009 12.5613L15.3516 11.5783C19.9878 7.6809 25.9702 5.33325 32.5011 5.33325C38.4032 5.33325 43.8579 7.25085 48.2755 10.497C48.8995 12.3918 47.7107 16.3508 46.4624 18.2455C46.0101 18.9318 44.9848 19.7839 43.8605 20.5915C41.3259 22.4126 38.1272 23.3134 36.5011 26.6666C36.036 27.6253 36.056 28.5621 36.2795 29.3767C36.4403 29.9621 36.5429 30.5986 36.5445 31.2213C36.5499 33.2343 34.5139 34.6885 32.5011 34.6666C27.2629 34.6095 23.8339 30.3879 23.3671 25.1929Z" fill="white"/>
<path d="M36.331 48.7362C38.966 43.7706 47.7489 43.7706 47.7489 43.7706C56.9009 43.6751 58.1372 38.1183 58.9636 35.3098C57.4844 47.2602 48.0988 56.7597 36.203 58.4122C35.3428 56.6015 34.3236 52.5189 36.331 48.7362Z" fill="white"/>
</svg>
