<svg width="20" height="20" viewBox="0 0 20 20" fill="none" xmlns="http://www.w3.org/2000/svg">
<path fill-rule="evenodd" clip-rule="evenodd" d="M6.28269 1.11046C4.8176 1.17656 3.54773 1.53476 2.52234 2.55581C1.49338 3.58223 1.13963 4.85712 1.07336 6.30697C1.03216 7.2119 0.791277 14.0484 1.48979 15.8413C1.96085 17.0509 2.8886 17.9809 4.10921 18.4534C4.67877 18.675 5.32895 18.8249 6.28269 18.8687C14.2574 19.2296 17.2136 19.0331 18.4602 15.8413C18.6814 15.2732 18.8336 14.6236 18.8757 13.6722C19.2402 5.67702 18.8166 3.94402 17.4267 2.55581C16.3243 1.45614 15.0276 0.707572 6.28269 1.11046ZM6.35611 17.2607C5.48296 17.2214 5.00923 17.0759 4.69311 16.9536C3.89787 16.6445 3.30055 16.0496 2.99338 15.259C2.46144 13.8967 2.63786 7.42645 2.68533 6.37948C2.73189 5.35395 2.93966 4.41669 3.66325 3.69311C4.55878 2.79979 5.7158 2.36199 13.5938 2.71753C14.6219 2.76398 15.5613 2.97132 16.2867 3.69311C17.1822 4.58642 17.6264 5.75234 17.2646 13.6001C17.2252 14.4711 17.0793 14.9437 16.9566 15.259C16.1461 17.336 14.2816 17.6243 6.35611 17.2607ZM13.6807 5.22065C13.6807 5.81203 14.1616 6.29291 14.7553 6.29291C15.3491 6.29291 15.8309 5.81203 15.8309 5.22065C15.8309 4.62928 15.3491 4.14882 14.7553 4.14882C14.1616 4.14882 13.6807 4.62928 13.6807 5.22065ZM5.3764 9.98914C5.3764 12.5226 7.43524 14.5766 9.97498 14.5766C12.5147 14.5766 14.5736 12.5226 14.5736 9.98914C14.5736 7.4557 12.5147 5.40302 9.97498 5.40302C7.43524 5.40302 5.3764 7.4557 5.3764 9.98914ZM6.99016 9.98914C6.99016 8.34544 8.3263 7.01185 9.97498 7.01185C11.6237 7.01185 12.9598 8.34544 12.9598 9.98914C12.9598 11.6337 11.6237 12.9677 9.97498 12.9677C8.3263 12.9677 6.99016 11.6337 6.99016 9.98914Z" fill="#52525C"/>
</svg>
