<svg width="32" height="33" viewBox="0 0 32 33" fill="none" xmlns="http://www.w3.org/2000/svg">
<path fill-rule="evenodd" clip-rule="evenodd" d="M10.5043 3.2465C11.9262 3.18105 12.3795 3.1665 16.0013 3.1665C19.6231 3.1665 20.0765 3.18226 21.4971 3.2465C22.9177 3.31075 23.8874 3.53741 24.7358 3.8659C25.6243 4.20166 26.4304 4.7265 27.0971 5.40529C27.7758 6.07075 28.2995 6.87559 28.634 7.76529C28.9637 8.61378 29.1892 9.58347 29.2546 11.0017C29.3201 12.4259 29.3346 12.8792 29.3346 16.4998C29.3346 20.1217 29.3189 20.575 29.2546 21.9968C29.1904 23.415 28.9637 24.3847 28.634 25.2332C28.2995 26.123 27.775 26.9292 27.0971 27.5956C26.4304 28.2744 25.6243 28.798 24.7358 29.1326C23.8874 29.4623 22.9177 29.6877 21.4995 29.7532C20.0765 29.8186 19.6231 29.8332 16.0013 29.8332C12.3795 29.8332 11.9262 29.8174 10.5043 29.7532C9.08615 29.6889 8.11645 29.4623 7.26797 29.1326C6.37818 28.798 5.57199 28.2735 4.90554 27.5956C4.22722 26.9297 3.70229 26.1239 3.36736 25.2344C3.03888 24.3859 2.81342 23.4162 2.74797 21.998C2.68251 20.5738 2.66797 20.1204 2.66797 16.4998C2.66797 12.878 2.68373 12.4247 2.74797 11.0041C2.81221 9.58347 3.03888 8.61378 3.36736 7.76529C3.70278 6.87569 4.22811 6.06991 4.90676 5.40408C5.57226 4.7259 6.37763 4.20098 7.26676 3.8659C8.11524 3.53741 9.08615 3.31196 10.5043 3.2465ZM21.388 5.6465C19.9819 5.58226 19.5601 5.56893 16.0001 5.56893C12.4401 5.56893 12.0183 5.58226 10.6122 5.6465C9.3116 5.7059 8.60615 5.92287 8.13585 6.1059C7.51403 6.34832 7.06918 6.63559 6.60251 7.10226C6.16014 7.53263 5.8197 8.05654 5.60615 8.63559C5.42312 9.1059 5.20615 9.81135 5.14676 11.112C5.08251 12.518 5.06918 12.9398 5.06918 16.4998C5.06918 20.0598 5.08251 20.4817 5.14676 21.8877C5.20615 23.1883 5.42312 23.8938 5.60615 24.3641C5.81948 24.9423 6.16009 25.4671 6.60251 25.8974C7.03282 26.3398 7.55767 26.6804 8.13585 26.8938C8.60615 27.0768 9.3116 27.2938 10.6122 27.3532C12.0183 27.4174 12.4389 27.4307 16.0001 27.4307C19.5613 27.4307 19.9819 27.4174 21.388 27.3532C22.6886 27.2938 23.394 27.0768 23.8643 26.8938C24.4861 26.6514 24.931 26.3641 25.3977 25.8974C25.8401 25.4671 26.1807 24.9423 26.394 24.3641C26.5771 23.8938 26.794 23.1883 26.8534 21.8877C26.9177 20.4817 26.931 20.0598 26.931 16.4998C26.931 12.9398 26.9177 12.518 26.8534 11.112C26.794 9.81135 26.5771 9.1059 26.394 8.63559C26.1516 8.01378 25.8643 7.56893 25.3977 7.10226C24.9673 6.65992 24.4434 6.31949 23.8643 6.1059C23.394 5.92287 22.6886 5.7059 21.388 5.6465ZM14.2971 20.6101C15.2482 21.0061 16.3072 21.0595 17.2933 20.7613C18.2795 20.4631 19.1315 19.8319 19.7039 18.9753C20.2762 18.1187 20.5335 17.09 20.4317 16.0648C20.3298 15.0396 19.8752 14.0816 19.1455 13.3544C18.6804 12.8895 18.1179 12.5335 17.4987 12.3121C16.8794 12.0907 16.2188 12.0094 15.5643 12.0739C14.9099 12.1385 14.2778 12.3473 13.7138 12.6854C13.1497 13.0236 12.6677 13.4826 12.3023 14.0294C11.9369 14.5761 11.6973 15.1972 11.6007 15.8477C11.5041 16.4982 11.553 17.162 11.7438 17.7914C11.9345 18.4207 12.2625 19 12.704 19.4874C13.1455 19.9748 13.6896 20.3582 14.2971 20.6101ZM11.1552 11.6538C11.7916 11.0174 12.5471 10.5126 13.3786 10.1682C14.2101 9.82374 15.1013 9.64647 16.0013 9.64647C16.9013 9.64647 17.7925 9.82374 18.624 10.1682C19.4555 10.5126 20.211 11.0174 20.8474 11.6538C21.4838 12.2902 21.9886 13.0457 22.333 13.8772C22.6774 14.7087 22.8547 15.5998 22.8547 16.4998C22.8547 17.3998 22.6774 18.291 22.333 19.1225C21.9886 19.954 21.4838 20.7095 20.8474 21.3459C19.5621 22.6312 17.8189 23.3532 16.0013 23.3532C14.1837 23.3532 12.4405 22.6312 11.1552 21.3459C9.86999 20.0606 9.14794 18.3175 9.14794 16.4998C9.14794 14.6822 9.86999 12.939 11.1552 11.6538ZM24.3746 10.6671C24.5323 10.5183 24.6586 10.3394 24.7459 10.141C24.8332 9.94258 24.8799 9.72865 24.883 9.51187C24.8862 9.2951 24.8458 9.07989 24.7643 8.879C24.6828 8.67811 24.5618 8.49561 24.4085 8.34231C24.2552 8.18901 24.0727 8.06803 23.8718 7.98653C23.6709 7.90502 23.4557 7.86466 23.239 7.86782C23.0222 7.87098 22.8083 7.9176 22.6098 8.00492C22.4114 8.09225 22.2325 8.2185 22.0837 8.3762C21.7944 8.6829 21.636 9.09029 21.6422 9.51187C21.6483 9.93346 21.8185 10.3361 22.1166 10.6342C22.4148 10.9323 22.8174 11.1025 23.239 11.1087C23.6605 11.1148 24.0679 10.9564 24.3746 10.6671Z" fill="url(#paint0_linear_1_2397)"/>
<defs>
<linearGradient id="paint0_linear_1_2397" x1="16.0013" y1="3.1665" x2="16.0013" y2="29.8332" gradientUnits="userSpaceOnUse">
<stop stop-color="#FF6467"/>
<stop offset="1" stop-color="#FB2C36"/>
</linearGradient>
</defs>
</svg>
