<svg width="20" height="20" viewBox="0 0 20 20" fill="none" xmlns="http://www.w3.org/2000/svg">
<path fill-rule="evenodd" clip-rule="evenodd" d="M19 19H15.4V12.7009C15.4 10.9729 14.6377 10.0088 13.2706 10.0088C11.7829 10.0088 10.9 11.0134 10.9 12.7009V19H7.3V7.3H10.9V8.61572C10.9 8.61572 12.0295 6.63379 14.5747 6.63379C17.1208 6.63379 19 8.18749 19 11.4023V19ZM3.1978 5.42881C1.9837 5.42881 1 4.43706 1 3.21396C1 1.99176 1.9837 1 3.1978 1C4.411 1 5.3947 1.99176 5.3947 3.21396C5.3956 4.43706 4.411 5.42881 3.1978 5.42881ZM1 19H5.5V7.3H1V19Z" fill="#52525C"/>
</svg>
