<svg width="20" height="20" viewBox="0 0 20 20" fill="none" xmlns="http://www.w3.org/2000/svg">
<path d="M11.3481 17.8062C10.9867 18.1445 10.5037 18.3337 10.0009 18.3337C9.49817 18.3337 9.01517 18.1445 8.65375 17.8062C5.34418 14.6887 0.908967 11.2061 3.07189 6.15004C4.24136 3.41629 7.04862 1.66699 10.0009 1.66699C12.9532 1.66699 15.7605 3.41629 16.93 6.15004C19.0902 11.1997 14.6658 14.6994 11.3481 17.8062Z" stroke="#3F3F47" stroke-width="1.5"/>
<path d="M12.9163 9.16667C12.9163 10.7775 11.6105 12.0833 9.99967 12.0833C8.38884 12.0833 7.08301 10.7775 7.08301 9.16667C7.08301 7.55583 8.38884 6.25 9.99967 6.25C11.6105 6.25 12.9163 7.55583 12.9163 9.16667Z" stroke="#3F3F47" stroke-width="1.5"/>
</svg>
