<svg width="20" height="21" viewBox="0 0 20 21" fill="none" xmlns="http://www.w3.org/2000/svg">
<path d="M11.3481 17.9199C10.9867 18.2583 10.5037 18.4474 10.0009 18.4474C9.49817 18.4474 9.01517 18.2583 8.65375 17.9199C5.34418 14.8024 0.908967 11.3198 3.07189 6.26381C4.24136 3.53006 7.04862 1.78076 10.0009 1.78076C12.9532 1.78076 15.7605 3.53006 16.93 6.26381C19.0902 11.3135 14.6658 14.8132 11.3481 17.9199Z" stroke="white" stroke-width="1.5"/>
<path d="M12.9163 9.28092C12.9163 10.8918 11.6105 12.1976 9.99967 12.1976C8.38884 12.1976 7.08301 10.8918 7.08301 9.28092C7.08301 7.67009 8.38884 6.36426 9.99967 6.36426C11.6105 6.36426 12.9163 7.67009 12.9163 9.28092Z" stroke="white" stroke-width="1.5"/>
</svg>
