<svg width="24" height="24" viewBox="0 0 24 24" fill="none" xmlns="http://www.w3.org/2000/svg">
<g clip-path="url(#clip0_1_2383)">
<path d="M11.9994 15.0002C12.5037 15.001 13.0011 14.8842 13.4524 14.6592L15.2024 13.7842C15.744 13.5159 16.1996 13.1011 16.5172 12.5869C16.8349 12.0726 17.0019 11.4796 16.9994 10.8752V9.12517C17.0013 8.52077 16.8336 7.92794 16.5154 7.41406C16.1972 6.90019 15.7413 6.48586 15.1994 6.21817L13.4494 5.34317C12.9979 5.11873 12.5006 5.00193 11.9964 5.00193C11.4922 5.00193 10.9949 5.11873 10.5434 5.34317L8.7994 6.21817C8.2575 6.48586 7.80155 6.90019 7.48336 7.41406C7.16517 7.92794 6.9975 8.52077 6.9994 9.12517V10.8752C6.9975 11.4796 7.16517 12.0724 7.48336 12.5863C7.80155 13.1002 8.2575 13.5145 8.7994 13.7822L10.5494 14.6572C10.9996 14.8825 11.496 14.9999 11.9994 15.0002ZM9.9994 10.8772V9.17717L11.3264 9.84017C11.5352 9.94502 11.7657 9.99963 11.9994 9.99963C12.2331 9.99963 12.4635 9.94502 12.6724 9.84017L13.9994 9.17817V10.8782C13.9996 10.9248 13.9867 10.9706 13.9621 11.0102C13.9375 11.0498 13.9023 11.0817 13.8604 11.1022L12.1104 11.9772C12.0759 11.9944 12.0379 12.0034 11.9994 12.0034C11.9609 12.0034 11.9229 11.9944 11.8884 11.9772L10.1384 11.1022C10.096 11.0815 10.0605 11.0491 10.0359 11.0089C10.0112 10.9687 9.99859 10.9223 9.9994 10.8752V10.8772ZM18.4994 21.0002H14.7594C15.0841 20.8032 15.386 20.5708 15.6594 20.3072L19.0714 17.1382C20.9442 15.2497 21.995 12.6978 21.995 10.0382C21.995 7.37855 20.9442 4.82663 19.0714 2.93817C18.1445 2.00548 17.0423 1.26528 15.8283 0.760186C14.6143 0.255087 13.3123 -0.00494385 11.9974 -0.00494385C10.6825 -0.00494385 9.38053 0.255087 8.16649 0.760186C6.95245 1.26528 5.85027 2.00548 4.9234 2.93817C3.04646 4.83575 1.99748 7.39946 2.00591 10.0685C2.01434 12.7375 3.07951 15.2945 4.9684 17.1802L8.3064 20.2802C8.5922 20.5554 8.90859 20.797 9.2494 21.0002H5.4994C5.10157 21.0002 4.72004 21.1582 4.43874 21.4395C4.15743 21.7208 3.9994 22.1024 3.9994 22.5002C3.9994 22.898 4.15743 23.2795 4.43874 23.5608C4.72004 23.8421 5.10157 24.0002 5.4994 24.0002H18.4994C18.8972 24.0002 19.2788 23.8421 19.5601 23.5608C19.8414 23.2795 19.9994 22.898 19.9994 22.5002C19.9994 22.1024 19.8414 21.7208 19.5601 21.4395C19.2788 21.1582 18.8972 21.0002 18.4994 21.0002ZM7.0524 15.0222C5.73891 13.6973 5.00195 11.9073 5.00195 10.0417C5.00195 8.17608 5.73891 6.38601 7.0524 5.06117C7.70015 4.40816 8.47079 3.88985 9.31985 3.53614C10.1689 3.18244 11.0796 3.00033 11.9994 3.00033C12.9192 3.00033 13.8299 3.18244 14.6789 3.53614C15.528 3.88985 16.2986 4.40816 16.9464 5.06117C18.2556 6.37715 18.994 8.15561 19.0021 10.0119C19.0101 11.8681 18.2871 13.6529 16.9894 14.9802L13.5894 18.1372C13.156 18.5519 12.5777 18.7809 11.9778 18.7753C11.3779 18.7697 10.804 18.5299 10.3784 18.1072L7.0524 15.0222Z" fill="url(#paint0_linear_1_2383)"/>
</g>
<defs>
<linearGradient id="paint0_linear_1_2383" x1="12.0004" y1="-0.00494385" x2="12.0004" y2="24.0002" gradientUnits="userSpaceOnUse">
<stop stop-color="#FF6467"/>
<stop offset="1" stop-color="#FB2C36"/>
</linearGradient>
<clipPath id="clip0_1_2383">
<rect width="24" height="24" fill="white"/>
</clipPath>
</defs>
</svg>
