<svg width="24" height="24" viewBox="0 0 24 24" fill="none" xmlns="http://www.w3.org/2000/svg">
<g clip-path="url(#clip0_1_2392)">
<path d="M17.4991 24.0001C9.35011 24.2301 -5.07789 9.7851 1.86211 1.9381C1.88711 1.9141 2.95311 0.984095 2.95311 0.984095C3.61303 0.346135 4.49715 -0.00705834 5.415 0.000610607C6.33284 0.00827956 7.21094 0.376197 7.86011 1.0251L10.0131 3.3441C10.6467 4.00653 10.9971 4.88988 10.9898 5.80651C10.9825 6.72314 10.6182 7.60082 9.97411 8.2531L9.58511 8.6471C10.7413 11.206 12.7865 13.2586 15.3411 14.4241L15.7511 14.0241C16.4175 13.3887 17.3029 13.0343 18.2236 13.0343C19.1443 13.0343 20.0297 13.3887 20.6961 14.0241L22.9341 16.1001C23.598 16.7467 23.9792 17.6297 23.9944 18.5564C24.0095 19.483 23.6575 20.3781 23.0151 21.0461C23.0151 21.0461 22.0851 22.1131 22.0611 22.1381C21.4614 22.7345 20.7495 23.2061 19.9665 23.5257C19.1834 23.8453 18.3448 24.0066 17.4991 24.0001ZM3.94911 4.1001C-0.910894 10.1171 14.6421 24.7731 19.9041 20.0501C19.9041 20.0501 20.8281 18.9911 20.8531 18.9661C20.9016 18.921 20.9403 18.8664 20.9668 18.8056C20.9932 18.7449 21.0069 18.6793 21.0069 18.6131C21.0069 18.5468 20.9932 18.4813 20.9668 18.4206C20.9403 18.3598 20.9016 18.3052 20.8531 18.2601L18.6151 16.1861C18.3151 15.9361 18.1471 15.9331 17.8671 16.1461L16.7321 17.2631C16.5272 17.4647 16.2687 17.6031 15.9873 17.662C15.706 17.7209 15.4136 17.6976 15.1451 17.5951C13.1498 16.853 11.3375 15.6905 9.83086 14.1865C8.32426 12.6825 7.15867 10.8721 6.41311 8.8781C6.30426 8.60735 6.27675 8.31074 6.33395 8.02459C6.39114 7.73845 6.53055 7.4752 6.73511 7.2671L7.84411 6.1401C7.89465 6.09554 7.93529 6.04088 7.96341 5.97965C7.99152 5.91842 8.00648 5.85197 8.00733 5.78459C8.00818 5.71722 7.99489 5.65042 7.96833 5.5885C7.94176 5.52657 7.90251 5.47091 7.85311 5.4251L5.69911 3.1061C5.6025 3.02904 5.48078 2.99048 5.35743 2.99787C5.23407 3.00525 5.11783 3.05806 5.03111 3.1461C5.00811 3.1711 3.94911 4.1001 3.94911 4.1001ZM23.6491 10.9331C24.0735 9.46519 24.0965 7.9103 23.7156 6.4305C23.3347 4.9507 22.5638 3.60015 21.4834 2.51962C20.4029 1.43908 19.0525 0.668102 17.5727 0.287045C16.0929 -0.0940125 14.5381 -0.0712031 13.0701 0.353095C12.8813 0.409432 12.7055 0.5024 12.5527 0.62669C12.3998 0.75098 12.2729 0.904158 12.1793 1.07748C12.0856 1.2508 12.0271 1.44087 12.0069 1.63683C11.9867 1.8328 12.0053 2.03082 12.0616 2.2196C12.1179 2.40837 12.2109 2.5842 12.3352 2.73705C12.4595 2.88989 12.6127 3.01676 12.786 3.11041C12.9593 3.20406 13.1494 3.26265 13.3453 3.28284C13.5413 3.30304 13.7393 3.28443 13.9281 3.2281C14.8774 2.95671 15.882 2.94418 16.8377 3.19179C17.7935 3.43941 18.6656 3.93816 19.3637 4.63634C20.0617 5.33452 20.5604 6.20671 20.8078 7.1625C21.0553 8.11828 21.0426 9.12286 20.7711 10.0721C20.7149 10.2609 20.6964 10.459 20.7167 10.655C20.737 10.851 20.7957 11.0411 20.8895 11.2143C20.9833 11.3876 21.1103 11.5407 21.2633 11.6649C21.4163 11.7891 21.5922 11.8819 21.7811 11.9381C21.9204 11.9792 22.0649 12 22.2101 12.0001C22.533 11.9997 22.8471 11.8952 23.1058 11.7021C23.3645 11.509 23.554 11.2375 23.6461 10.9281L23.6491 10.9331ZM18.0631 11.0661C18.2025 10.9268 18.3131 10.7614 18.3885 10.5793C18.464 10.3973 18.5028 10.2022 18.5028 10.0051C18.5028 9.80803 18.464 9.6129 18.3885 9.43085C18.3131 9.2488 18.2025 9.0834 18.0631 8.9441L16.9991 7.8791V6.5001C16.9991 6.10227 16.8411 5.72074 16.5598 5.43944C16.2785 5.15813 15.8969 5.0001 15.4991 5.0001C15.1013 5.0001 14.7198 5.15813 14.4384 5.43944C14.1571 5.72074 13.9991 6.10227 13.9991 6.5001V8.5001C13.999 8.69711 14.0377 8.89222 14.1131 9.07427C14.1884 9.25631 14.2988 9.42174 14.4381 9.5611L15.9381 11.0611C16.0774 11.2005 16.2428 11.3111 16.4249 11.3865C16.6069 11.4619 16.802 11.5008 16.9991 11.5008C17.1962 11.5008 17.3913 11.4619 17.5734 11.3865C17.7554 11.3111 17.9208 11.2005 18.0601 11.0611L18.0631 11.0661Z" fill="url(#paint0_linear_1_2392)"/>
</g>
<defs>
<linearGradient id="paint0_linear_1_2392" x1="12.0121" y1="0.000488281" x2="12.0121" y2="24.0028" gradientUnits="userSpaceOnUse">
<stop stop-color="#FF6467"/>
<stop offset="1" stop-color="#FB2C36"/>
</linearGradient>
<clipPath id="clip0_1_2392">
<rect width="24" height="24" fill="white"/>
</clipPath>
</defs>
</svg>
