<svg width="20" height="21" viewBox="0 0 20 21" fill="none" xmlns="http://www.w3.org/2000/svg">
<path d="M7.63188 4.87445L7.29633 4.11947C7.07693 3.62582 6.96723 3.37899 6.80317 3.1901C6.59756 2.95337 6.32956 2.77921 6.02973 2.68747C5.79049 2.61426 5.52038 2.61426 4.98017 2.61426C4.18992 2.61426 3.7948 2.61426 3.46311 2.76617C3.07239 2.94511 2.71953 3.33366 2.57894 3.73976C2.45959 4.0845 2.49378 4.43878 2.56215 5.14734C3.28992 12.6894 7.42485 16.8243 14.9669 17.5521C15.6755 17.6205 16.0298 17.6547 16.3745 17.5353C16.7806 17.3948 17.1691 17.0418 17.3481 16.6512C17.5 16.3194 17.5 15.9243 17.5 15.1341C17.5 14.5938 17.5 14.3238 17.4268 14.0845C17.335 13.7847 17.1609 13.5167 16.9241 13.3111C16.7353 13.147 16.4885 13.0373 15.9948 12.8179L15.2398 12.4823C14.7052 12.2448 14.4379 12.126 14.1663 12.1002C13.9063 12.0754 13.6442 12.1119 13.4009 12.2067C13.1466 12.3057 12.922 12.4929 12.4725 12.8674C12.0251 13.2403 11.8015 13.4267 11.5281 13.5265C11.2858 13.615 10.9655 13.6478 10.7103 13.6102C10.4224 13.5678 10.202 13.45 9.76105 13.2143C8.38938 12.4813 7.63294 11.7249 6.89989 10.3532C6.66428 9.91234 6.54648 9.69184 6.50406 9.40401C6.46645 9.14876 6.49923 8.82842 6.58775 8.58617C6.6876 8.31282 6.87401 8.08914 7.24682 7.64176C7.62135 7.19232 7.80861 6.96761 7.90762 6.71335C8.00237 6.47004 8.03885 6.20792 8.01412 5.94799C7.98828 5.67636 7.86948 5.40906 7.63188 4.87445Z" stroke="white" stroke-width="1.5" stroke-linecap="round"/>
</svg>
