<svg width="88" height="88" viewBox="0 0 88 88" fill="none" xmlns="http://www.w3.org/2000/svg">
<g filter="url(#filter0_dd_1_981)">
<g clip-path="url(#clip0_1_981)">
<rect x="16" y="16" width="56" height="56" rx="28" fill="white"/>
<rect x="16" y="16" width="56" height="56" rx="28" fill="url(#paint0_linear_1_981)"/>
<path opacity="0.5" d="M32.5 41.3332C32.5 36.3049 32.5 33.7907 34.0621 32.2286C35.6242 30.6665 38.1383 30.6665 43.1667 30.6665H45.8333C50.8616 30.6665 53.3759 30.6665 54.9379 32.2286C56.5 33.7907 56.5 36.3049 56.5 41.3332V46.6665C56.5 51.6948 56.5 54.209 54.9379 55.771C53.3759 57.3332 50.8616 57.3332 45.8333 57.3332H43.1667C38.1383 57.3332 35.6242 57.3332 34.0621 55.771C32.5 54.209 32.5 51.6948 32.5 46.6665V41.3332Z" fill="white"/>
<path fill-rule="evenodd" clip-rule="evenodd" d="M38.167 44C38.167 43.4477 38.6147 43 39.167 43H49.8337C50.3859 43 50.8337 43.4477 50.8337 44C50.8337 44.5523 50.3859 45 49.8337 45H39.167C38.6147 45 38.167 44.5523 38.167 44Z" fill="white"/>
<path fill-rule="evenodd" clip-rule="evenodd" d="M38.167 38.6665C38.167 38.1142 38.6147 37.6665 39.167 37.6665H49.8337C50.3859 37.6665 50.8337 38.1142 50.8337 38.6665C50.8337 39.2188 50.3859 39.6665 49.8337 39.6665H39.167C38.6147 39.6665 38.167 39.2188 38.167 38.6665Z" fill="white"/>
<path fill-rule="evenodd" clip-rule="evenodd" d="M38.167 49.3335C38.167 48.7812 38.6147 48.3335 39.167 48.3335H45.8337C46.3859 48.3335 46.8337 48.7812 46.8337 49.3335C46.8337 49.8858 46.3859 50.3335 45.8337 50.3335H39.167C38.6147 50.3335 38.167 49.8858 38.167 49.3335Z" fill="white"/>
</g>
</g>
<defs>
<filter id="filter0_dd_1_981" x="0" y="0" width="88" height="88" filterUnits="userSpaceOnUse" color-interpolation-filters="sRGB">
<feFlood flood-opacity="0" result="BackgroundImageFix"/>
<feColorMatrix in="SourceAlpha" type="matrix" values="0 0 0 0 0 0 0 0 0 0 0 0 0 0 0 0 0 0 127 0" result="hardAlpha"/>
<feMorphology radius="8" operator="dilate" in="SourceAlpha" result="effect1_dropShadow_1_981"/>
<feOffset/>
<feComposite in2="hardAlpha" operator="out"/>
<feColorMatrix type="matrix" values="0 0 0 0 0.984314 0 0 0 0 0.172549 0 0 0 0 0.211765 0 0 0 0.05 0"/>
<feBlend mode="normal" in2="BackgroundImageFix" result="effect1_dropShadow_1_981"/>
<feColorMatrix in="SourceAlpha" type="matrix" values="0 0 0 0 0 0 0 0 0 0 0 0 0 0 0 0 0 0 127 0" result="hardAlpha"/>
<feMorphology radius="16" operator="dilate" in="SourceAlpha" result="effect2_dropShadow_1_981"/>
<feOffset/>
<feComposite in2="hardAlpha" operator="out"/>
<feColorMatrix type="matrix" values="0 0 0 0 0.984314 0 0 0 0 0.172549 0 0 0 0 0.211765 0 0 0 0.05 0"/>
<feBlend mode="normal" in2="effect1_dropShadow_1_981" result="effect2_dropShadow_1_981"/>
<feBlend mode="normal" in="SourceGraphic" in2="effect2_dropShadow_1_981" result="shape"/>
</filter>
<linearGradient id="paint0_linear_1_981" x1="44" y1="16" x2="44" y2="72" gradientUnits="userSpaceOnUse">
<stop stop-color="#FF6467"/>
<stop offset="1" stop-color="#FB2C36"/>
</linearGradient>
<clipPath id="clip0_1_981">
<rect x="16" y="16" width="56" height="56" rx="28" fill="white"/>
</clipPath>
</defs>
</svg>
