<svg width="64" height="64" viewBox="0 0 64 64" fill="none" xmlns="http://www.w3.org/2000/svg">
<path opacity="0.5" d="M8.45719 21.1242C5.33301 24.2484 5.33301 29.2768 5.33301 39.3333C5.33301 49.3899 5.33301 54.4184 8.45719 57.5424C11.5814 60.6667 16.6097 60.6667 26.6663 60.6667H37.333C47.3895 60.6667 52.4181 60.6667 55.5421 57.5424C58.6663 54.4184 58.6663 49.3899 58.6663 39.3333C58.6663 29.2768 58.6663 24.2484 55.5421 21.1242C52.4181 18 47.3895 18 37.333 18H26.6663C16.6097 18 11.5814 18 8.45719 21.1242Z" fill="white"/>
<path d="M42.6667 28.6666C44.1395 28.6666 45.3333 27.4727 45.3333 25.9999C45.3333 24.5272 44.1395 23.3333 42.6667 23.3333C41.1939 23.3333 40 24.5272 40 25.9999C40 27.4727 41.1939 28.6666 42.6667 28.6666Z" fill="white"/>
<path d="M24.0003 25.9999C24.0003 27.4727 22.8064 28.6666 21.3337 28.6666C19.8609 28.6666 18.667 27.4727 18.667 25.9999C18.667 24.5272 19.8609 23.3333 21.3337 23.3333C22.8064 23.3333 24.0003 24.5272 24.0003 25.9999Z" fill="white"/>
<path d="M32.1383 5.33326H31.861C29.465 5.33318 27.4671 5.33312 25.8811 5.54635C24.207 5.77144 22.6955 6.26656 21.4809 7.48115C20.2663 8.69573 19.7712 10.2072 19.5461 11.8813C19.3329 13.4674 19.3329 15.4653 19.333 17.8612V18.0685C20.5518 18.0286 21.8806 18.0119 23.333 18.005V17.9999C23.333 15.4292 23.3373 13.7024 23.5105 12.4143C23.6759 11.1837 23.9618 10.6571 24.3093 10.3096C24.6569 9.96206 25.1835 9.67613 26.4141 9.51069C27.7021 9.33752 29.429 9.33325 31.9997 9.33325C34.5703 9.33325 36.2973 9.33752 37.5853 9.51069C38.8159 9.67613 39.3426 9.96206 39.6901 10.3096C40.0375 10.6571 40.3234 11.1837 40.489 12.4143C40.6621 13.7024 40.6663 15.4292 40.6663 17.9999V18.005C42.1189 18.0119 43.4477 18.0286 44.6663 18.0685V17.8613C44.6663 15.4654 44.6666 13.4674 44.4533 11.8813C44.2282 10.2072 43.733 8.69573 42.5183 7.48115C41.3039 6.26656 39.7925 5.77144 38.1183 5.54635C36.5322 5.33312 34.5343 5.33318 32.1383 5.33326Z" fill="white"/>
</svg>
