<svg width="46" height="46" viewBox="0 0 46 46" fill="none" xmlns="http://www.w3.org/2000/svg">
<path d="M23 28.75C26.1756 28.75 28.75 26.1756 28.75 23C28.75 19.8244 26.1756 17.25 23 17.25C19.8244 17.25 17.25 19.8244 17.25 23C17.25 26.1756 19.8244 28.75 23 28.75Z" stroke="#27272A" stroke-width="2.5"/>
<path opacity="0.5" d="M26.3841 4.12529C25.6796 3.8335 24.7866 3.8335 23.0004 3.8335C21.2143 3.8335 20.3213 3.8335 19.6168 4.12529C18.6775 4.51435 17.9313 5.26061 17.5422 6.19987C17.3646 6.62865 17.2951 7.12729 17.2679 7.85464C17.2279 8.92355 16.6798 9.91295 15.7534 10.4478C14.8271 10.9826 13.6962 10.9626 12.7505 10.4628C12.107 10.1227 11.6404 9.93352 11.1802 9.87295C10.1723 9.74024 9.15287 10.0134 8.3463 10.6323C7.74136 11.0965 7.29483 11.8699 6.40178 13.4167C5.50873 14.9635 5.06221 15.7369 4.96267 16.4929C4.82998 17.5009 5.10313 18.5203 5.72204 19.3269C6.00452 19.6951 6.40153 20.0044 7.01772 20.3916C7.92356 20.9608 8.5064 21.9305 8.50634 23.0002C8.50628 24.0699 7.92346 25.0393 7.0177 25.6084C6.40144 25.9957 6.00436 26.3053 5.72185 26.6735C5.10294 27.48 4.82979 28.4993 4.9625 29.5072C5.06201 30.2632 5.50854 31.0367 6.40159 32.5835C7.29466 34.1302 7.74119 34.9038 8.34611 35.3678C9.15268 35.9867 10.1721 36.2599 11.1801 36.1272C11.6401 36.0667 12.1067 35.8775 12.7502 35.5375C13.6959 35.0376 14.8269 35.0177 15.7533 35.5524C16.6797 36.0874 17.2279 37.0767 17.2679 38.1459C17.2951 38.873 17.3646 39.3718 17.5422 39.8005C17.9313 40.7397 18.6775 41.486 19.6168 41.8751C20.3213 42.1668 21.2143 42.1668 23.0004 42.1668C24.7866 42.1668 25.6796 42.1668 26.3841 41.8751C27.3233 41.486 28.0696 40.7397 28.4585 39.8005C28.6362 39.3718 28.7058 38.873 28.733 38.1457C28.7729 37.0767 29.321 36.0874 30.2474 35.5524C31.1737 35.0175 32.3047 35.0376 33.2506 35.5375C33.894 35.8775 34.3605 36.0665 34.8205 36.127C35.8285 36.2599 36.848 35.9867 37.6545 35.3678C38.2594 34.9036 38.706 34.1302 39.599 32.5833C40.4921 31.0366 40.9387 30.2632 41.0382 29.5072C41.1708 28.4993 40.8977 27.4798 40.2788 26.6733C39.9963 26.3051 39.5992 25.9955 38.9829 25.6084C38.0773 25.0393 37.4945 24.0697 37.4945 23C37.4945 21.9303 38.0773 20.961 38.9829 20.392C39.5993 20.0046 39.9965 19.6953 40.279 19.3269C40.8979 18.5204 41.171 17.501 41.0384 16.493C40.9389 15.737 40.4923 14.9636 39.5992 13.4168C38.7062 11.87 38.2596 11.0966 37.6547 10.6324C36.8482 10.0135 35.8287 9.74038 34.8207 9.87309C34.3607 9.93365 33.8942 10.1228 33.2506 10.4629C32.3049 10.9627 31.1739 10.9827 30.2475 10.4478C29.321 9.91299 28.7729 8.92351 28.733 7.85455C28.7058 7.12725 28.6362 6.62863 28.4585 6.19987C28.0696 5.26061 27.3233 4.51435 26.3841 4.12529Z" stroke="#27272A" stroke-width="2.5"/>
</svg>
