<svg width="101" height="17" viewBox="0 0 101 17" fill="none" xmlns="http://www.w3.org/2000/svg">
<path d="M4.17172 16.4526L5.53577 10.5721L0.960938 6.61678L7.00476 6.0936L9.35513 0.547852L11.7055 6.0936L17.7493 6.61678L13.1745 10.5721L14.5385 16.4526L9.35513 13.3345L4.17172 16.4526Z" fill="#FBBB02"/>
<path d="M24.9598 16.4526L26.3239 10.5721L21.749 6.61678L27.7928 6.0936L30.1432 0.547852L32.4936 6.0936L38.5374 6.61678L33.9626 10.5721L35.3266 16.4526L30.1432 13.3345L24.9598 16.4526Z" fill="#FBBB02"/>
<path d="M45.7489 16.4526L47.1129 10.5721L42.5381 6.61678L48.5819 6.0936L50.9323 0.547852L53.2827 6.0936L59.3265 6.61678L54.7516 10.5721L56.1157 16.4526L50.9323 13.3345L45.7489 16.4526Z" fill="#FBBB02"/>
<path d="M66.537 16.4526L67.901 10.5721L63.3262 6.61678L69.37 6.0936L71.7204 0.547852L74.0707 6.0936L80.1146 6.61678L75.5397 10.5721L76.9038 16.4526L71.7204 13.3345L66.537 16.4526Z" fill="#FBBB02"/>
<path d="M87.325 16.4526L88.6891 10.5721L84.1143 6.61678L90.1581 6.0936L92.5084 0.547852L94.8588 6.0936L100.903 6.61678L96.3278 10.5721L97.6919 16.4526L92.5084 13.3345L87.325 16.4526Z" fill="#FBBB02"/>
</svg>
