<svg width="46" height="46" viewBox="0 0 46 46" fill="none" xmlns="http://www.w3.org/2000/svg">
<path d="M29.9602 14.627C29.2012 13.8679 28.8217 13.4884 28.6795 13.0508C28.5544 12.6658 28.5544 12.2512 28.6795 11.8662C28.8217 11.4286 29.2012 11.0491 29.9602 10.29L35.4005 4.84983C33.9569 4.19693 32.3542 3.8335 30.6667 3.8335C24.3155 3.8335 19.1667 8.98222 19.1667 15.3335C19.1667 16.2747 19.2798 17.1894 19.4931 18.0649C19.7214 19.0025 19.8356 19.4712 19.8155 19.7673C19.7942 20.0774 19.748 20.2425 19.6051 20.5183C19.4684 20.7818 19.2068 21.0434 18.6834 21.5669L6.70845 33.5418C5.12062 35.1296 5.12062 37.7041 6.70845 39.2918C8.29625 40.8796 10.8706 40.8796 12.4584 39.2918L24.4333 27.3169C24.9568 26.7934 25.2184 26.5318 25.4819 26.3953C25.7579 26.2524 25.9228 26.2062 26.2329 26.1849C26.529 26.1646 26.9978 26.2788 27.9353 26.5071C28.8108 26.7204 29.7256 26.8335 30.6667 26.8335C37.018 26.8335 42.1667 21.6848 42.1667 15.3335C42.1667 13.646 41.8033 12.0435 41.1505 10.5998L35.7102 16.04C34.9512 16.7991 34.5717 17.1786 34.134 17.3208C33.7491 17.4459 33.3345 17.4459 32.9495 17.3208C32.5119 17.1786 32.1324 16.7991 31.3734 16.04L29.9602 14.627Z" stroke="#27272A" stroke-width="2.5" stroke-linecap="round" stroke-linejoin="round"/>
</svg>
