<svg width="32" height="33" viewBox="0 0 32 33" fill="none" xmlns="http://www.w3.org/2000/svg">
<path d="M20.4664 7.89983C19.453 7.89966 18.4801 8.29732 17.7569 9.00725C17.0338 9.71718 16.6183 10.6826 16.5997 11.6958L16.5624 13.7958C16.5602 13.9086 16.5342 14.0196 16.4861 14.1216C16.438 14.2236 16.3689 14.3143 16.2833 14.3877C16.1976 14.4611 16.0975 14.5155 15.9893 14.5475C15.8812 14.5795 15.7675 14.5882 15.6557 14.5732L13.5731 14.2905C10.8357 13.9172 8.21173 12.6558 5.69307 10.5585C4.89707 14.9718 6.45307 18.0292 10.2037 20.3878L12.5331 21.8518C12.6438 21.9213 12.7359 22.0168 12.8012 22.13C12.8665 22.2433 12.903 22.3708 12.9076 22.5014C12.9122 22.6321 12.8847 22.7619 12.8276 22.8794C12.7704 22.997 12.6853 23.0988 12.5797 23.1758L10.4571 24.7265C11.7197 24.8052 12.9184 24.7492 13.9131 24.5518C20.2037 23.2958 24.3864 18.5625 24.3864 10.7545C24.3864 10.1172 23.0357 7.89983 20.4664 7.89983ZM13.9331 11.6465C13.9563 10.3612 14.3583 9.11139 15.0885 8.05346C15.8187 6.99553 16.8448 6.17652 18.0383 5.69898C19.2318 5.22145 20.5396 5.1066 21.7981 5.36882C23.0565 5.63105 24.2096 6.25869 25.1131 7.17316C26.0611 7.16649 26.8677 7.40649 28.6704 6.31316C28.2251 8.49983 28.0037 9.44916 27.0531 10.7545C27.0531 20.9438 20.7904 25.8985 14.4344 27.1665C10.0784 28.0358 3.74107 26.6078 1.92773 24.7118C2.85173 24.6398 6.61173 24.2358 8.78507 22.6452C6.94507 21.4318 -0.372266 17.1252 4.43707 5.54783C6.6944 8.18383 8.98373 9.97849 11.3037 10.9305C12.8464 11.5638 13.2264 11.5518 13.9344 11.6478" fill="url(#paint0_linear_1_2403)"/>
<defs>
<linearGradient id="paint0_linear_1_2403" x1="15.2991" y1="5.23145" x2="15.2991" y2="27.4273" gradientUnits="userSpaceOnUse">
<stop stop-color="#FF6467"/>
<stop offset="1" stop-color="#FB2C36"/>
</linearGradient>
</defs>
</svg>
