<svg width="32" height="33" viewBox="0 0 32 33" fill="none" xmlns="http://www.w3.org/2000/svg">
<g clip-path="url(#clip0_1_2405)">
<path d="M16.0013 5.8335C17.1413 5.8335 18.3106 5.86283 19.444 5.91083L20.7826 5.97483L22.064 6.05083L23.264 6.13216L24.36 6.2175C25.5494 6.30853 26.6686 6.81609 27.5207 7.65088C28.3728 8.48567 28.9032 9.59422 29.0186 10.7815L29.072 11.3482L29.172 12.5615C29.2653 13.8188 29.3346 15.1895 29.3346 16.5002C29.3346 17.8108 29.2653 19.1815 29.172 20.4388L29.072 21.6522C29.0546 21.8468 29.0373 22.0348 29.0186 22.2188C28.9032 23.4063 28.3725 24.515 27.5202 25.3498C26.6678 26.1847 25.5483 26.6921 24.3586 26.7828L23.2653 26.8668L22.0653 26.9495L20.7826 27.0255L19.444 27.0895C18.2971 27.1393 17.1493 27.1651 16.0013 27.1668C14.8533 27.1651 13.7055 27.1393 12.5586 27.0895L11.22 27.0255L9.93863 26.9495L8.73864 26.8668L7.64263 26.7828C6.45324 26.6918 5.33404 26.1842 4.48193 25.3494C3.62983 24.5147 3.0994 23.4061 2.98397 22.2188L2.93064 21.6522L2.83064 20.4388C2.72869 19.1283 2.67443 17.8146 2.66797 16.5002C2.66797 15.1895 2.7373 13.8188 2.83064 12.5615L2.93064 11.3482C2.94797 11.1535 2.9653 10.9655 2.98397 10.7815C3.09936 9.59443 3.62959 8.48605 4.48142 7.65129C5.33326 6.81652 6.45214 6.30883 7.6413 6.2175L8.73597 6.13216L9.93597 6.05083L11.2186 5.97483L12.5573 5.91083C13.7046 5.86101 14.8529 5.83522 16.0013 5.8335ZM16.0013 8.50016C14.9013 8.50016 13.7693 8.5295 12.668 8.57483L11.364 8.6375L10.112 8.71083L8.93597 8.79083L7.85864 8.87483C7.29241 8.915 6.75869 9.15436 6.35209 9.55046C5.94549 9.94657 5.69227 10.4738 5.6373 11.0388C5.4813 12.6508 5.33464 14.6575 5.33464 16.5002C5.33464 18.3428 5.4813 20.3495 5.6373 21.9615C5.75064 23.1242 6.6733 24.0282 7.85864 24.1255L8.93597 24.2082L10.112 24.2882L11.364 24.3628L12.668 24.4255C13.7693 24.4708 14.9013 24.5002 16.0013 24.5002C17.1013 24.5002 18.2333 24.4708 19.3346 24.4255L20.6386 24.3628L21.8906 24.2895L23.0666 24.2095L24.144 24.1255C24.7102 24.0853 25.2439 23.846 25.6505 23.4499C26.0571 23.0538 26.3103 22.5265 26.3653 21.9615C26.5213 20.3495 26.668 18.3428 26.668 16.5002C26.668 14.6575 26.5213 12.6508 26.3653 11.0388C26.3103 10.4738 26.0571 9.94657 25.6505 9.55046C25.2439 9.15436 24.7102 8.915 24.144 8.87483L23.0666 8.79216L21.8906 8.71216L20.6386 8.6375L19.3346 8.57483C18.2242 8.52705 17.1128 8.50216 16.0013 8.50016ZM13.3346 13.2668C13.3345 13.1365 13.3663 13.0082 13.4271 12.8929C13.4879 12.7777 13.576 12.679 13.6836 12.6055C13.7913 12.5321 13.9152 12.486 14.0447 12.4714C14.1742 12.4567 14.3053 12.4739 14.4266 12.5215L14.5346 12.5748L20.1346 15.8068C20.2461 15.8712 20.3405 15.9615 20.4096 16.0701C20.4788 16.1787 20.5207 16.3024 20.5318 16.4306C20.543 16.5589 20.523 16.6879 20.4735 16.8068C20.4241 16.9257 20.3467 17.0309 20.248 17.1135L20.1346 17.1935L14.5346 20.4268C14.4218 20.4922 14.2947 20.5289 14.1644 20.5339C14.0341 20.5389 13.9045 20.512 13.787 20.4555C13.6695 20.3989 13.5675 20.3145 13.4901 20.2096C13.4127 20.1047 13.362 19.9825 13.3426 19.8535L13.3346 19.7335V13.2668Z" fill="url(#paint0_linear_1_2405)"/>
</g>
<defs>
<linearGradient id="paint0_linear_1_2405" x1="16.0013" y1="5.8335" x2="16.0013" y2="27.1668" gradientUnits="userSpaceOnUse">
<stop stop-color="#FF6467"/>
<stop offset="1" stop-color="#FB2C36"/>
</linearGradient>
<clipPath id="clip0_1_2405">
<rect width="32" height="32" fill="white" transform="translate(0 0.5)"/>
</clipPath>
</defs>
</svg>
