<svg width="20" height="20" viewBox="0 0 20 20" fill="none" xmlns="http://www.w3.org/2000/svg">
<path d="M18.6283 7.19707C18.5283 6.77007 18.3277 6.38014 18.0471 6.06712C17.7664 5.7541 17.4157 5.5292 17.0309 5.41542C14.6978 5.11066 12.3492 4.97332 10 5.00427C7.65082 4.97332 5.30229 5.11066 2.96911 5.41542C2.58429 5.5292 2.23363 5.7541 1.95298 6.06712C1.67232 6.38014 1.47173 6.77007 1.37169 7.19707C1.11611 8.78427 0.991853 10.394 1.00046 12.0062C0.991426 13.6268 1.11569 15.2448 1.37169 16.8403C1.47692 17.2604 1.67981 17.6425 1.96013 17.9487C2.24043 18.2548 2.58834 18.4741 2.96911 18.5846C5.30229 18.8893 7.65082 19.0267 10 18.9957C12.3492 19.0267 14.6978 18.8893 17.0309 18.5846C17.4117 18.4741 17.7596 18.2548 18.0399 17.9487C18.3202 17.6425 18.5231 17.2604 18.6283 16.8403C18.8844 15.2448 19.0085 13.6268 18.9995 12.0062C19.0082 10.394 18.8839 8.78427 18.6283 7.19707ZM8.15509 14.9839V9.05344L12.8686 12.0062L8.15509 14.9715V14.9839Z" fill="#52525C"/>
</svg>
